<svg xmlns="http://www.w3.org/2000/svg" width="36" height="36" fill="none" viewBox="0 0 36 36">
  <g clip-path="url(#a)">
    <path fill="#D68842" d="M36 18.066C36 8.088 27.941 0 18 0S0 8.088 0 18.066C0 26.54 5.811 33.648 13.652 35.6V23.587H9.94v-5.52h3.712v-2.38c0-6.149 2.772-8.999 8.787-8.999 1.14 0 3.108.224 3.913.449v5.004c-.425-.044-1.163-.067-2.08-.067-2.95 0-4.091 1.122-4.091 4.04v1.952h5.88l-1.01 5.52h-4.87V36C29.093 34.92 36 27.303 36 18.066Z"/>
  </g>
  <defs>
    <clipPath id="a">
      <path fill="#fff" d="M0 0h36v36H0z"/>
    </clipPath>
  </defs>
</svg>
