<svg xmlns="http://www.w3.org/2000/svg" width="40" height="40" fill="none" viewBox="0 0 40 40">
  <path fill="#D68842" d="M20 25.333a5.333 5.333 0 1 0 0-10.666 5.333 5.333 0 0 0 0 10.666Z"/>
  <path fill="#D68842" d="M26.665 4H13.332C8.187 4 4 8.188 4 13.335v13.333C4 31.813 8.188 36 13.335 36h13.333C31.813 36 36 31.812 36 26.665V13.332C36 8.187 31.812 4 26.665 4ZM20 28c-4.412 0-8-3.588-8-8s3.588-8 8-8 8 3.588 8 8-3.588 8-8 8Zm9.333-16a1.334 1.334 0 1 1 .001-2.668 1.334 1.334 0 0 1 0 2.668Z"/>
</svg>
